<svg width="45" height="36" viewBox="0 0 45 36" fill="none" xmlns="http://www.w3.org/2000/svg">
<path d="M15.75 18C18.1369 18 20.4261 17.0518 22.114 15.364C23.8018 13.6761 24.75 11.3869 24.75 9C24.75 6.61305 23.8018 4.32387 22.114 2.63604C20.4261 0.948212 18.1369 0 15.75 0C13.3631 0 11.0739 0.948212 9.38604 2.63604C7.69821 4.32387 6.75 6.61305 6.75 9C6.75 11.3869 7.69821 13.6761 9.38604 15.364C11.0739 17.0518 13.3631 18 15.75 18ZM12.5367 21.375C5.61094 21.375 0 26.9859 0 33.9117C0 35.0648 0.935156 36 2.08828 36H29.4117C29.5383 36 29.6578 35.9859 29.7844 35.9648C24.4195 32.0906 22.7672 26.0508 22.5352 21.8883C21.4031 21.5508 20.2078 21.375 18.9703 21.375H12.5367ZM34.2492 15.8695L25.8117 19.2445C25.1719 19.5047 24.75 20.1234 24.75 20.8125C24.75 25.2633 26.5711 32.6813 34.2281 35.8734C34.643 36.0492 35.1141 36.0492 35.5289 35.8734C43.1789 32.6813 45 25.2633 45 20.8125C45 20.1234 44.5781 19.5047 43.9383 19.2445L35.5008 15.8695C35.1 15.7078 34.65 15.7078 34.2492 15.8695ZM41.5828 21.9375C41.3086 25.5023 39.6703 30.143 34.875 32.4633V19.2516L41.5828 21.9375Z" fill="#EABD22"/>
</svg>
