<svg width="16" height="17" viewBox="0 0 16 17" fill="none" xmlns="http://www.w3.org/2000/svg">
<path d="M15 1.00174C15 0.598615 14.7563 0.23299 14.3813 0.0767397C14.0063 -0.0795103 13.5781 0.00798967 13.2906 0.292365L11.9281 1.65799C10.4281 3.15799 8.39375 4.00174 6.27187 4.00174H6H5H2C0.896875 4.00174 0 4.89861 0 6.00174V9.00174C0 10.1049 0.896875 11.0017 2 11.0017V15.0017C2 15.5549 2.44688 16.0017 3 16.0017H5C5.55312 16.0017 6 15.5549 6 15.0017V11.0017H6.27187C8.39375 11.0017 10.4281 11.8455 11.9281 13.3455L13.2906 14.708C13.5781 14.9955 14.0063 15.0799 14.3813 14.9236C14.7563 14.7674 15 14.4049 15 13.9986V9.38924C15.5813 9.11424 16 8.37361 16 7.50174C16 6.62986 15.5813 5.88924 15 5.61424V1.00174ZM13 3.39861V7.50174V11.6049C11.1625 9.93299 8.76562 9.00174 6.27187 9.00174H6V6.00174H6.27187C8.76562 6.00174 11.1625 5.07049 13 3.39861Z" fill="#EABD22"/>
</svg>
