<svg width="12" height="14" viewBox="0 0 12 14" fill="none" xmlns="http://www.w3.org/2000/svg">
<path d="M9.83609 7.39817C9.82984 6.25109 10.3487 5.38531 11.3989 4.7477C10.8113 3.90693 9.92361 3.44435 8.75153 3.35371C7.64196 3.26619 6.42925 4.0007 5.98542 4.0007C5.51659 4.0007 4.4414 3.38497 3.5975 3.38497C1.85345 3.4131 0 4.77583 0 7.54819C0 8.36708 0.150026 9.21307 0.450078 10.0861C0.850148 11.2332 2.29415 14.0462 3.80066 13.9993C4.5883 13.9806 5.14465 13.4398 6.16983 13.4398C7.16375 13.4398 7.67946 13.9993 8.55774 13.9993C10.0768 13.9774 11.3832 11.4207 11.7646 10.2705C9.7267 9.311 9.83609 7.45755 9.83609 7.39817ZM8.06703 2.26602C8.92031 1.25334 8.84217 0.331308 8.81716 0C8.06391 0.0437576 7.19188 0.512589 6.69492 1.09082C6.14795 1.70967 5.82602 2.47543 5.89478 3.33808C6.71055 3.40059 7.45442 2.98177 8.06703 2.26602Z" fill="#ECEAE8"/>
</svg>
