<svg width="41" height="32" viewBox="0 0 41 32" fill="none" xmlns="http://www.w3.org/2000/svg">
<path d="M4.55556 0C2.04288 0 0 2.04288 0 4.55556V6.83333H41V4.55556C41 2.04288 38.9571 0 36.4444 0H4.55556ZM41 13.6667H0V27.3333C0 29.846 2.04288 31.8889 4.55556 31.8889H36.4444C38.9571 31.8889 41 29.846 41 27.3333V13.6667ZM7.97222 22.7778H12.5278C13.1542 22.7778 13.6667 23.2903 13.6667 23.9167C13.6667 24.5431 13.1542 25.0556 12.5278 25.0556H7.97222C7.34583 25.0556 6.83333 24.5431 6.83333 23.9167C6.83333 23.2903 7.34583 22.7778 7.97222 22.7778ZM15.9444 23.9167C15.9444 23.2903 16.4569 22.7778 17.0833 22.7778H26.1944C26.8208 22.7778 27.3333 23.2903 27.3333 23.9167C27.3333 24.5431 26.8208 25.0556 26.1944 25.0556H17.0833C16.4569 25.0556 15.9444 24.5431 15.9444 23.9167Z" fill="#EABD22"/>
</svg>
