<svg width="41" height="32" viewBox="0 0 41 32" fill="none" xmlns="http://www.w3.org/2000/svg">
<path d="M4.5 0C2.01797 0 0 2.01797 0 4.5V6.75H40.5V4.5C40.5 2.01797 38.482 0 36 0H4.5ZM40.5 13.5H0V27C0 29.482 2.01797 31.5 4.5 31.5H36C38.482 31.5 40.5 29.482 40.5 27V13.5ZM7.875 22.5H12.375C12.9937 22.5 13.5 23.0063 13.5 23.625C13.5 24.2437 12.9937 24.75 12.375 24.75H7.875C7.25625 24.75 6.75 24.2437 6.75 23.625C6.75 23.0063 7.25625 22.5 7.875 22.5ZM15.75 23.625C15.75 23.0063 16.2563 22.5 16.875 22.5H25.875C26.4937 22.5 27 23.0063 27 23.625C27 24.2437 26.4937 24.75 25.875 24.75H16.875C16.2563 24.75 15.75 24.2437 15.75 23.625Z" fill="#EABD22"/>
</svg>
