<svg width="20" height="20" viewBox="0 0 20 20" fill="none" xmlns="http://www.w3.org/2000/svg">
<path d="M16.3008 14.0664L13.5039 13.8789C13.3008 13.8672 13.1016 13.9219 12.9375 14.043C12.7734 14.1641 12.6562 14.332 12.6094 14.5312L11.9219 17.25C11.3086 17.4141 10.6641 17.5 10 17.5C9.33594 17.5 8.69141 17.4141 8.07812 17.25L7.39062 14.5312C7.33984 14.3359 7.22266 14.1641 7.0625 14.043C6.90234 13.9219 6.69922 13.8672 6.49609 13.8789L3.69922 14.0664C3.01172 13.0039 2.58594 11.7539 2.51172 10.4102L4.88281 8.91797C5.05469 8.80859 5.17969 8.64453 5.24219 8.45312C5.30469 8.26172 5.29688 8.05469 5.22266 7.86719L4.17969 5.26562C5 4.26562 6.06641 3.47656 7.29297 3.00391L9.44922 4.80078C9.60547 4.92969 9.80078 5 10 5C10.1992 5 10.3984 4.92969 10.5508 4.80078L12.707 3.00391C13.9297 3.47656 15 4.26562 15.8164 5.26562L14.7734 7.86719C14.6992 8.05469 14.6914 8.26172 14.7539 8.45312C14.8164 8.64453 14.9453 8.80859 15.1133 8.91797L17.4844 10.4102C17.4102 11.7539 16.9844 13.0039 16.2969 14.0664H16.3008ZM10 20C12.6522 20 15.1957 18.9464 17.0711 17.0711C18.9464 15.1957 20 12.6522 20 10C20 7.34784 18.9464 4.8043 17.0711 2.92893C15.1957 1.05357 12.6522 0 10 0C7.34784 0 4.8043 1.05357 2.92893 2.92893C1.05357 4.8043 0 7.34784 0 10C0 12.6522 1.05357 15.1957 2.92893 17.0711C4.8043 18.9464 7.34784 20 10 20ZM10.5508 7.27734C10.2227 7.03906 9.77734 7.03906 9.44922 7.27734L7.57812 8.63281C7.25 8.87109 7.11328 9.29297 7.23828 9.67969L7.95312 11.8789C8.07812 12.2656 8.4375 12.5273 8.84375 12.5273H11.1562C11.5625 12.5273 11.9219 12.2656 12.0469 11.8789L12.7617 9.67969C12.8867 9.29297 12.75 8.87109 12.4219 8.63281L10.5508 7.27344V7.27734Z" fill="#EABD22"/>
</svg>
