<svg width="20" height="9" viewBox="0 0 20 9" fill="none" xmlns="http://www.w3.org/2000/svg">
<path d="M3.30375 2.74516V4.03422H5.08812C5.05213 4.23972 4.97508 4.43585 4.86158 4.61089C4.74807 4.78593 4.60043 4.93629 4.42749 5.05297C4.12937 5.25766 3.74874 5.37422 3.3025 5.37422C2.44 5.37422 1.71093 4.78328 1.44937 3.99235C1.3125 3.57623 1.3125 3.12721 1.44937 2.7111C1.71093 1.91547 2.44 1.32453 3.3025 1.32453C3.53628 1.32018 3.7686 1.36236 3.98594 1.44863C4.20327 1.5349 4.40127 1.66353 4.56843 1.82703L5.51468 0.87016C4.91872 0.303931 4.12576 -0.00809613 3.30375 0.00015975C2.68881 0.00251944 2.08679 0.176733 1.56563 0.503135C1.04446 0.829537 0.624926 1.29513 0.35437 1.84735C0.121319 2.31403 0 2.82852 0 3.35016C0 3.8718 0.121319 4.38629 0.35437 4.85297V4.85766C0.624999 5.40956 1.04465 5.87472 1.56587 6.20055C2.08708 6.52638 2.68907 6.69987 3.30375 6.70141C4.19343 6.70141 4.94593 6.4036 5.49124 5.89172C6.11624 5.31016 6.47281 4.44953 6.47281 3.42578C6.47317 3.1978 6.45488 2.97016 6.41812 2.74516H3.30375ZM15.4728 2.62016C15.1562 2.32703 14.725 2.17828 14.1794 2.17828C13.4775 2.17828 12.95 2.43891 12.6012 2.95516L13.2528 3.36953C13.4913 3.01537 13.817 2.83828 14.2297 2.83828C14.4924 2.83892 14.7457 2.93677 14.9406 3.11297C15.0356 3.19546 15.1118 3.29737 15.164 3.41182C15.2163 3.52627 15.2434 3.6506 15.2434 3.77641V3.9486C14.9591 3.79016 14.6012 3.70641 14.1609 3.70641C13.6472 3.70641 13.2344 3.82766 12.9269 4.07422C12.6194 4.32078 12.4637 4.64641 12.4637 5.06047C12.4589 5.24552 12.4956 5.42931 12.5709 5.59838C12.6463 5.76746 12.7585 5.91754 12.8994 6.03766C13.1884 6.29828 13.5556 6.4286 13.9866 6.4286C14.4956 6.4286 14.8994 6.20047 15.2053 5.74453H15.2366V6.29829H15.9431V3.83891C15.9453 3.32172 15.7894 2.91203 15.4728 2.62016ZM14.8719 5.41078C14.7635 5.52105 14.6343 5.60867 14.4917 5.66854C14.3492 5.72841 14.1962 5.75934 14.0416 5.75953C13.8337 5.763 13.6312 5.69393 13.4687 5.56422C13.3929 5.50742 13.3315 5.43366 13.2893 5.34884C13.2472 5.26402 13.2255 5.1705 13.2259 5.07578C13.2259 4.85703 13.3266 4.67547 13.5241 4.53141C13.7216 4.38735 13.9781 4.31266 14.2762 4.31266C14.6875 4.30766 15.0094 4.40141 15.2387 4.58703C15.2387 4.9036 15.115 5.17797 14.8719 5.41078ZM11.9453 0.973285C11.7795 0.807502 11.5819 0.676928 11.3643 0.589397C11.1468 0.501866 10.9138 0.459183 10.6794 0.46391H8.72093V6.29953H9.45937V3.93578H10.6781C11.1781 3.93578 11.6 3.76828 11.9441 3.43797C11.9716 3.41016 11.9991 3.38203 12.0269 3.35422C12.328 3.02559 12.4881 2.59193 12.4729 2.14646C12.4576 1.70099 12.2682 1.2793 11.9453 0.972034V0.973285ZM11.4272 2.91797C11.3341 3.01734 11.2209 3.09572 11.0951 3.14788C10.9693 3.20004 10.8339 3.22479 10.6978 3.22047H9.45937V1.18266H10.6978C10.9621 1.1817 11.216 1.2854 11.4041 1.4711C11.5954 1.66162 11.7048 1.91925 11.7091 2.18921C11.7135 2.45918 11.6123 2.72018 11.4272 2.91672V2.91797ZM19.1972 2.30766L18.0553 5.17329H18.0412L16.8719 2.30766H16.0691L17.6875 6.0436L16.7703 8.0536H17.5312L20 2.30766H19.1972Z" fill="#ECEAE8"/>
</svg>
