<svg width="30" height="26" viewBox="0 0 30 26" fill="none" xmlns="http://www.w3.org/2000/svg">
<path d="M2.78906 15.1318L13.377 25.0166C13.8164 25.4267 14.3965 25.6552 15 25.6552C15.6035 25.6552 16.1836 25.4267 16.623 25.0166L27.2109 15.1318C28.9922 13.4736 30 11.1474 30 8.71577V8.37592C30 4.28022 27.041 0.788033 23.0039 0.114205C20.332 -0.331107 17.6133 0.54194 15.7031 2.4521L15 3.15522L14.2969 2.4521C12.3867 0.54194 9.66797 -0.331107 6.99609 0.114205C2.95898 0.788033 0 4.28022 0 8.37592V8.71577C0 11.1474 1.00781 13.4736 2.78906 15.1318Z" fill="#EABD22"/>
</svg>
