<svg width="34" height="30" viewBox="0 0 34 30" fill="none" xmlns="http://www.w3.org/2000/svg">
<path d="M20.625 8.4375C20.625 5.84766 22.7227 3.75 25.3125 3.75C27.9023 3.75 30 5.84766 30 8.4375V11.25C30 12.2871 30.8379 13.125 31.875 13.125C32.9121 13.125 33.75 12.2871 33.75 11.25V8.4375C33.75 3.7793 29.9707 0 25.3125 0C20.6543 0 16.875 3.7793 16.875 8.4375V11.25H3.75C1.68164 11.25 0 12.9316 0 15V26.25C0 28.3184 1.68164 30 3.75 30H22.5C24.5684 30 26.25 28.3184 26.25 26.25V15C26.25 12.9316 24.5684 11.25 22.5 11.25H20.625V8.4375Z" fill="#EABD22"/>
</svg>
