<svg width="36" height="32" viewBox="0 0 36 32" fill="none" xmlns="http://www.w3.org/2000/svg">
<path d="M31.5 3.375C32.1188 3.375 32.625 3.88125 32.625 4.5V26.9859L32.2734 26.5289L22.7109 14.1539C22.3945 13.7391 21.8953 13.5 21.375 13.5C20.8547 13.5 20.3625 13.7391 20.0391 14.1539L14.2031 21.7055L12.0586 18.7031C11.7422 18.2602 11.2359 18 10.6875 18C10.1391 18 9.63281 18.2602 9.31641 18.7102L3.69141 26.5852L3.375 27.0211V27V4.5C3.375 3.88125 3.88125 3.375 4.5 3.375H31.5ZM4.5 0C2.01797 0 0 2.01797 0 4.5V27C0 29.482 2.01797 31.5 4.5 31.5H31.5C33.982 31.5 36 29.482 36 27V4.5C36 2.01797 33.982 0 31.5 0H4.5ZM10.125 13.5C10.5682 13.5 11.0071 13.4127 11.4166 13.2431C11.826 13.0735 12.1981 12.8249 12.5115 12.5115C12.8249 12.1981 13.0735 11.826 13.2431 11.4166C13.4127 11.0071 13.5 10.5682 13.5 10.125C13.5 9.68179 13.4127 9.24292 13.2431 8.83344C13.0735 8.42397 12.8249 8.05191 12.5115 7.73851C12.1981 7.42512 11.826 7.17652 11.4166 7.00691C11.0071 6.8373 10.5682 6.75 10.125 6.75C9.68179 6.75 9.24292 6.8373 8.83344 7.00691C8.42397 7.17652 8.05191 7.42512 7.73851 7.73851C7.42512 8.05191 7.17652 8.42397 7.00691 8.83344C6.8373 9.24292 6.75 9.68179 6.75 10.125C6.75 10.5682 6.8373 11.0071 7.00691 11.4166C7.17652 11.826 7.42512 12.1981 7.73851 12.5115C8.05191 12.8249 8.42397 13.0735 8.83344 13.2431C9.24292 13.4127 9.68179 13.5 10.125 13.5Z" fill="#9E9B97"/>
</svg>
