<svg width="20" height="18" viewBox="0 0 20 18" fill="none" xmlns="http://www.w3.org/2000/svg">
<path d="M17.7371 2.168L13.6931 1C13.6931 1.84869 13.304 2.66263 12.6114 3.26274C11.9188 3.86286 10.9795 4.2 10 4.2C9.02052 4.2 8.08116 3.86286 7.38857 3.26274C6.69597 2.66263 6.30688 1.84869 6.30688 1L2.2629 2.168C1.84501 2.28864 1.49065 2.53473 1.26378 2.86187C1.03691 3.18902 0.95247 3.57565 1.02571 3.952L1.56121 6.728C1.59636 6.91593 1.70772 7.08684 1.87526 7.21001C2.04279 7.33318 2.25554 7.40055 2.47526 7.4H4.46031V15.4C4.46031 16.28 5.29127 17 6.30688 17H13.6931C14.1829 17 14.6525 16.8314 14.9988 16.5314C15.3451 16.2313 15.5397 15.8243 15.5397 15.4V7.4H17.5247C17.7445 7.40055 17.9572 7.33318 18.1247 7.21001C18.2923 7.08684 18.4036 6.91593 18.4388 6.728L18.9743 3.952C19.0475 3.57565 18.9631 3.18902 18.7362 2.86187C18.5093 2.53473 18.155 2.28864 17.7371 2.168Z" stroke="#9E9B97" stroke-width="2" stroke-linecap="round" stroke-linejoin="round"/>
</svg>
