<svg width="38" height="25" viewBox="0 0 38 25" fill="none" xmlns="http://www.w3.org/2000/svg">
<path d="M2.85 0C1.27656 0 0 1.27656 0 2.85C0 3.74656 0.421563 4.58969 1.14 5.13L14.06 14.82C14.7369 15.3247 15.6631 15.3247 16.34 14.82L19.7481 12.2669C21.1672 8.71625 24.4803 6.13344 28.4347 5.7475L29.26 5.13C29.9784 4.58969 30.4 3.74656 30.4 2.85C30.4 1.27656 29.1234 0 27.55 0H2.85ZM17.48 16.34C16.1263 17.3553 14.2738 17.3553 12.92 16.34L0 6.65V19C0 21.0959 1.70406 22.8 3.8 22.8H21.3869C19.8966 20.995 19 18.6734 19 16.15C19 15.8175 19.0178 15.4909 19.0475 15.1644L17.48 16.34ZM38 16.15C38 13.8824 37.0992 11.7077 35.4958 10.1042C33.8923 8.5008 31.7176 7.6 29.45 7.6C27.1824 7.6 25.0077 8.5008 23.4042 10.1042C21.8008 11.7077 20.9 13.8824 20.9 16.15C20.9 18.4176 21.8008 20.5923 23.4042 22.1958C25.0077 23.7992 27.1824 24.7 29.45 24.7C31.7176 24.7 33.8923 23.7992 35.4958 22.1958C37.0992 20.5923 38 18.4176 38 16.15ZM33.4459 13.5791C33.8141 13.9472 33.8141 14.5528 33.4459 14.9209L29.1709 19.1959C28.8028 19.5641 28.1972 19.5641 27.8291 19.1959L25.4541 16.8209C25.0859 16.4528 25.0859 15.8472 25.4541 15.4791C25.8222 15.1109 26.4278 15.1109 26.7959 15.4791L28.5 17.1831L32.1041 13.5791C32.4722 13.2109 33.0778 13.2109 33.4459 13.5791Z" fill="#EABD22"/>
</svg>
